<svg xmlns="http://www.w3.org/2000/svg" xmlns:xlink="http://www.w3.org/1999/xlink" viewBox="0 0 985.16 909.39"><defs><style>.bfd7bfae-fd29-439d-9b14-877bd1237049{fill:url(#fb77d2de-0dba-4c43-99b2-ea1119b22002);}.ba18d2bb-8fbf-4432-b5c0-b50edf7935f1{fill:url(#adea0582-7244-4b69-b21d-8f26fc27f1bf);}.a2afb8fd-c8d4-41f5-88e0-11805bc26232{fill:url(#a7f5325f-cb53-4fa1-8566-4408f25c5766);}.f84c2290-4567-4009-9276-a87e3f9c3d9b{fill:url(#fec7e282-98b6-4076-afff-a3645e411754);}</style><linearGradient id="fb77d2de-0dba-4c43-99b2-ea1119b22002" x1="298.76" y1="237.68" x2="480.29" y2="237.68" gradientUnits="userSpaceOnUse"><stop offset="0" stop-color="#fff"/><stop offset="1"/></linearGradient><linearGradient id="adea0582-7244-4b69-b21d-8f26fc27f1bf" x1="509.5" y1="237.7" x2="691.03" y2="237.7" xlink:href="#fb77d2de-0dba-4c43-99b2-ea1119b22002"/><linearGradient id="a7f5325f-cb53-4fa1-8566-4408f25c5766" x1="0" y1="622.99" x2="474.52" y2="622.99" xlink:href="#fb77d2de-0dba-4c43-99b2-ea1119b22002"/><linearGradient id="fec7e282-98b6-4076-afff-a3645e411754" x1="510.65" y1="625.45" x2="985.16" y2="625.45" xlink:href="#fb77d2de-0dba-4c43-99b2-ea1119b22002"/></defs><g id="b4027ff6-c084-477e-bde8-063c0aaac028" data-name="Camada 2"><g id="af3ff6b8-06d7-4fe4-945d-cee82ba9fd9e" data-name="Camada 1"><path class="bfd7bfae-fd29-439d-9b14-877bd1237049" d="M474.78,4.8l5.51,468.78a1.75,1.75,0,0,1-3,1.28l-178-172.38a1.74,1.74,0,0,1-.31-2.11L465.69,2.49A4.85,4.85,0,0,1,474.78,4.8Z"/><path class="ba18d2bb-8fbf-4432-b5c0-b50edf7935f1" d="M515,4.83,509.5,473.61a1.75,1.75,0,0,0,3,1.28l178-172.38a1.76,1.76,0,0,0,.31-2.11L524.1,2.52A4.85,4.85,0,0,0,515,4.83Z"/><path class="a2afb8fd-c8d4-41f5-88e0-11805bc26232" d="M288.21,340,473.64,502.22a2.56,2.56,0,0,1,.88,1.92V842.27a3.54,3.54,0,0,1-6.08,2.47l-129-132.25a2.38,2.38,0,0,1-.66-1.64V633.42a1.18,1.18,0,0,0-1.94-.91l-332.7,274a2.53,2.53,0,0,1-3.86-3.08l281-562.06A4.44,4.44,0,0,1,288.21,340Z"/><path class="f84c2290-4567-4009-9276-a87e3f9c3d9b" d="M697,342.62,511.52,504.84a2.55,2.55,0,0,0-.87,1.92V844.89a3.54,3.54,0,0,0,6.07,2.47l129-132.25a2.35,2.35,0,0,0,.67-1.64V636c0-1,1.17-1.55.94-1.74l332.7,274c3.1,2.55,6.07.18,4.85-2.26L703.85,344A4.43,4.43,0,0,0,697,342.62Z"/></g></g></svg>