<svg xmlns="http://www.w3.org/2000/svg" xmlns:xlink="http://www.w3.org/1999/xlink" viewBox="0 0 963.59 342.73"><defs><style>.af3f1fd1-2c32-47b1-9046-a5266f8d0603{fill:url(#bc15e6ba-ae83-48ef-820b-ebc3b1a5c924);}.ae932c5e-dc1d-496e-9087-61894aea3525{fill:url(#a5530036-9a1a-4353-83e1-b15497447236);}.b05cf19c-4308-402f-b4fa-5f936330afae{fill:url(#fbcd8530-ffff-4618-a832-9361e5b9e48e);}.ba9aa9a1-972e-4db7-8c70-205405801b1f{fill:url(#b352300a-93ac-4ddb-911f-9cc5d8195e39);}.be0a1552-5a13-429c-86f2-3accbbe1294e{font-size:119.65px;fill:#015c8c;font-family:GravesendSans-Medium, Gravesend Sans;font-weight:500;letter-spacing:0.13em;}.a4015eb2-a7aa-4298-85fa-a5f5f324512e,.beb2828c-75e1-458f-afdf-43f7e2cf01c2{fill:#9fa3ac;}.beb2828c-75e1-458f-afdf-43f7e2cf01c2{letter-spacing:0.14em;}.e9770730-5cf9-4d42-98a7-e296249e2b36{letter-spacing:0.14em;}.a4015eb2-a7aa-4298-85fa-a5f5f324512e,.f4ca239c-c161-4de1-baf0-b3bd83d9e3cb{letter-spacing:0.14em;}</style><linearGradient id="bc15e6ba-ae83-48ef-820b-ebc3b1a5c924" x1="112.6" y1="89.58" x2="181.01" y2="89.58" gradientUnits="userSpaceOnUse"><stop offset="0" stop-color="#fff"/><stop offset="1"/></linearGradient><linearGradient id="a5530036-9a1a-4353-83e1-b15497447236" x1="192.02" y1="89.59" x2="260.43" y2="89.59" xlink:href="#bc15e6ba-ae83-48ef-820b-ebc3b1a5c924"/><linearGradient id="fbcd8530-ffff-4618-a832-9361e5b9e48e" x1="0" y1="234.79" x2="178.83" y2="234.79" xlink:href="#bc15e6ba-ae83-48ef-820b-ebc3b1a5c924"/><linearGradient id="b352300a-93ac-4ddb-911f-9cc5d8195e39" x1="192.45" y1="235.72" x2="371.28" y2="235.72" xlink:href="#bc15e6ba-ae83-48ef-820b-ebc3b1a5c924"/></defs><g id="a6b0b235-bb6f-4d08-bc13-983aca0fbd6b" data-name="Camada 2"><g id="fa4a2f03-117e-4a71-a6f9-435863936a62" data-name="Camada 1"><path class="af3f1fd1-2c32-47b1-9046-a5266f8d0603" d="M178.93,1.81,181,178.48a.66.66,0,0,1-1.12.48L112.8,114a.65.65,0,0,1-.12-.8L175.51.94A1.83,1.83,0,0,1,178.93,1.81Z"/><path class="ae932c5e-dc1d-496e-9087-61894aea3525" d="M194.1,1.82,192,178.49a.66.66,0,0,0,1.12.48l67.09-65a.67.67,0,0,0,.12-.8L197.52,1A1.83,1.83,0,0,0,194.1,1.82Z"/><path class="b05cf19c-4308-402f-b4fa-5f936330afae" d="M108.62,128.14l69.89,61.13a1,1,0,0,1,.32.73V317.43a1.33,1.33,0,0,1-2.29.93l-48.61-49.84a.9.9,0,0,1-.25-.62V238.72a.44.44,0,0,0-.73-.34L1.56,341.63a1,1,0,0,1-1.45-1.15L106,128.65A1.67,1.67,0,0,1,108.62,128.14Z"/><path class="ba9aa9a1-972e-4db7-8c70-205405801b1f" d="M262.67,129.12l-69.89,61.14a1,1,0,0,0-.33.73V318.42a1.34,1.34,0,0,0,2.29.93l48.62-49.84a.9.9,0,0,0,.25-.62V239.71c0-.38.44-.59.35-.66L369.35,342.31c1.17,1,2.29.07,1.83-.85L265.27,129.64A1.68,1.68,0,0,0,262.67,129.12Z"/><text class="be0a1552-5a13-429c-86f2-3accbbe1294e" transform="translate(326.46 217.14)">E<tspan class="beb2828c-75e1-458f-afdf-43f7e2cf01c2" x="92.85" y="0">S</tspan><tspan class="e9770730-5cf9-4d42-98a7-e296249e2b36" x="185.81" y="0">C</tspan><tspan class="a4015eb2-a7aa-4298-85fa-a5f5f324512e" x="286.08" y="0">ALI</tspan><tspan class="f4ca239c-c161-4de1-baf0-b3bd83d9e3cb" x="525.02" y="0">Q</tspan></text></g></g></svg>