<svg xmlns="http://www.w3.org/2000/svg" xmlns:xlink="http://www.w3.org/1999/xlink" viewBox="0 0 936.89 696.6"><defs><style>.a4782041-ec9c-403f-b5ab-a58724149fd2{fill:url(#f072e0ac-b728-4d64-b557-c4ccbf6069fa);}.e4bab365-cc45-446b-99b2-d90e4e7d2e4e{fill:url(#e80573b1-71ca-48c1-bb12-71b8be25b131);}.f11ae26f-3bb5-4134-9635-cb7340520f60{fill:url(#b60a9cc4-afd2-4434-84dc-6091cfe00acc);}.adb5090e-70e1-4477-8374-5fd0425640d5{fill:url(#b5930ece-b154-4536-8e6b-b535acda17c0);}.ba967fb0-acc4-4fcd-8dbc-fbae709366c8{font-size:175.94px;fill:#015c8c;font-family:GravesendSans-Medium, Gravesend Sans;font-weight:500;letter-spacing:0.13em;}.a5b6de78-ca66-42b8-80ef-8fad971af23b{fill:#9fa3ac;letter-spacing:0.14em;}.b6e5b058-8af8-47bd-8f9b-5087bd74c56d{letter-spacing:0.14em;}.f90c9c7d-cd5a-4c9e-b3a6-35c0a3c3fbc4{letter-spacing:0.14em;}</style><linearGradient id="f072e0ac-b728-4d64-b557-c4ccbf6069fa" x1="335.66" y1="137.85" x2="440.95" y2="137.85" gradientUnits="userSpaceOnUse"><stop offset="0" stop-color="#fff"/><stop offset="1"/></linearGradient><linearGradient id="e80573b1-71ca-48c1-bb12-71b8be25b131" x1="457.89" y1="137.87" x2="563.17" y2="137.87" xlink:href="#f072e0ac-b728-4d64-b557-c4ccbf6069fa"/><linearGradient id="b60a9cc4-afd2-4434-84dc-6091cfe00acc" x1="162.38" y1="361.33" x2="437.6" y2="361.33" xlink:href="#f072e0ac-b728-4d64-b557-c4ccbf6069fa"/><linearGradient id="b5930ece-b154-4536-8e6b-b535acda17c0" x1="458.55" y1="362.75" x2="733.76" y2="362.75" xlink:href="#f072e0ac-b728-4d64-b557-c4ccbf6069fa"/></defs><g id="b7d24ef5-3500-42c9-b8bd-5720bf4caf34" data-name="Camada 2"><g id="f48cf000-03ed-435d-b0de-f21b087e4a4c" data-name="Camada 1"><path class="a4782041-ec9c-403f-b5ab-a58724149fd2" d="M437.75,2.79,441,274.67a1,1,0,0,1-1.72.74L336,175.44a1,1,0,0,1-.18-1.23L432.48,1.44A2.82,2.82,0,0,1,437.75,2.79Z"/><path class="e4bab365-cc45-446b-99b2-d90e4e7d2e4e" d="M461.08,2.8l-3.19,271.89a1,1,0,0,0,1.72.74l103.25-100a1,1,0,0,0,.18-1.22L466.36,1.46A2.82,2.82,0,0,0,461.08,2.8Z"/><path class="f11ae26f-3bb5-4134-9635-cb7340520f60" d="M329.54,197.19l107.55,94.09a1.49,1.49,0,0,1,.51,1.11V488.5a2.06,2.06,0,0,1-3.53,1.43l-74.81-76.7a1.34,1.34,0,0,1-.39-1V367.37a.69.69,0,0,0-1.13-.53l-193,158.91a1.46,1.46,0,0,1-2.24-1.78l163-326A2.58,2.58,0,0,1,329.54,197.19Z"/><path class="adb5090e-70e1-4477-8374-5fd0425640d5" d="M566.61,198.71,459.06,292.8a1.49,1.49,0,0,0-.51,1.11V490a2.06,2.06,0,0,0,3.53,1.43l74.81-76.7a1.34,1.34,0,0,0,.39-.95V368.89c0-.58.68-.9.55-1l193,158.9c1.79,1.48,3.52.11,2.81-1.3l-163-326A2.58,2.58,0,0,0,566.61,198.71Z"/><text class="ba967fb0-acc4-4fcd-8dbc-fbae709366c8" transform="translate(0 661.77)">E<tspan class="a5b6de78-ca66-42b8-80ef-8fad971af23b" x="136.53" y="0">S</tspan><tspan class="b6e5b058-8af8-47bd-8f9b-5087bd74c56d" x="273.24" y="0">C</tspan><tspan class="a5b6de78-ca66-42b8-80ef-8fad971af23b" x="420.68" y="0">ALI</tspan><tspan class="f90c9c7d-cd5a-4c9e-b3a6-35c0a3c3fbc4" x="772.03" y="0">Q</tspan></text></g></g></svg>