<svg xmlns="http://www.w3.org/2000/svg" xmlns:xlink="http://www.w3.org/1999/xlink" viewBox="0 0 937.35 312.76"><defs><style>.e9405f05-6746-4082-9b50-316de2e949a8{fill:url(#a7725995-b96a-40f9-bc28-c117ecad24e4);}.b3f9e258-d98a-4055-ae23-376688999b22{fill:url(#a10730ad-c7d4-4cef-a572-9cea30063569);}.a42dae73-1f22-47b4-bd25-c673a30bd67e{fill:url(#a309639f-cb7e-4fd7-94d8-fd519f6af43b);}.ff2d7c3a-8576-4488-9d78-7febefe29f86{fill:url(#e307f4f2-d7a8-4f5c-bc4d-6d343dc17779);}.bfa9d824-c11b-4fcb-b7e2-5ef7338247fe{font-size:109.19px;fill:#00bfff;font-family:GravesendSans-Medium, Gravesend Sans;font-weight:500;letter-spacing:0.13em;}.b567bab7-b87c-4296-b783-2fc6e1779d59,.f89758ec-b287-440a-8cff-4bd8a715b060{fill:#9fa3ac;}.b567bab7-b87c-4296-b783-2fc6e1779d59{letter-spacing:0.14em;}.b92ba9cd-208b-407f-a25b-e3c347616237{letter-spacing:0.14em;}.f89758ec-b287-440a-8cff-4bd8a715b060{letter-spacing:0.14em;}</style><linearGradient id="a7725995-b96a-40f9-bc28-c117ecad24e4" x1="102.75" y1="81.74" x2="165.19" y2="81.74" gradientUnits="userSpaceOnUse"><stop offset="0" stop-color="#fff"/><stop offset="1"/></linearGradient><linearGradient id="a10730ad-c7d4-4cef-a572-9cea30063569" x1="175.23" y1="81.75" x2="237.66" y2="81.75" xlink:href="#a7725995-b96a-40f9-bc28-c117ecad24e4"/><linearGradient id="a309639f-cb7e-4fd7-94d8-fd519f6af43b" x1="0" y1="214.26" x2="163.2" y2="214.26" xlink:href="#a7725995-b96a-40f9-bc28-c117ecad24e4"/><linearGradient id="e307f4f2-d7a8-4f5c-bc4d-6d343dc17779" x1="175.63" y1="215.11" x2="338.82" y2="215.11" xlink:href="#a7725995-b96a-40f9-bc28-c117ecad24e4"/></defs><g id="a4a5a8b7-1e96-47e4-94b1-3085b3a0ce8f" data-name="Camada 2"><g id="a0ea3940-0104-4382-ba26-8c41cbf2ca26" data-name="Camada 1"><path class="e9405f05-6746-4082-9b50-316de2e949a8" d="M163.29,1.65l1.9,161.23a.61.61,0,0,1-1,.44L102.94,104a.59.59,0,0,1-.11-.72L160.16.86A1.67,1.67,0,0,1,163.29,1.65Z"/><path class="b3f9e258-d98a-4055-ae23-376688999b22" d="M177.13,1.66l-1.9,161.23a.6.6,0,0,0,1,.44L237.48,104a.61.61,0,0,0,.11-.73L180.25.87A1.66,1.66,0,0,0,177.13,1.66Z"/><path class="a42dae73-1f22-47b4-bd25-c673a30bd67e" d="M99.12,116.93l63.78,55.8a.86.86,0,0,1,.3.66V289.68a1.22,1.22,0,0,1-2.09.85L116.74,245a.83.83,0,0,1-.23-.56V217.85a.4.4,0,0,0-.66-.31L1.42,311.77A.87.87,0,0,1,.1,310.71L96.75,117.4A1.53,1.53,0,0,1,99.12,116.93Z"/><path class="ff2d7c3a-8576-4488-9d78-7febefe29f86" d="M239.7,117.84l-63.77,55.79a.87.87,0,0,0-.3.66V290.58a1.21,1.21,0,0,0,2.08.85l44.37-45.49a.79.79,0,0,0,.23-.56V218.75c0-.34.4-.53.32-.6l114.43,94.23c1.06.88,2.09.07,1.67-.77L242.07,118.3A1.52,1.52,0,0,0,239.7,117.84Z"/><text class="bfa9d824-c11b-4fcb-b7e2-5ef7338247fe" transform="translate(355.92 200.15)">E<tspan class="b567bab7-b87c-4296-b783-2fc6e1779d59" x="84.73" y="0">S</tspan><tspan class="b92ba9cd-208b-407f-a25b-e3c347616237" x="169.57" y="0">C</tspan><tspan class="f89758ec-b287-440a-8cff-4bd8a715b060" x="261.07" y="0">ALI</tspan><tspan class="b92ba9cd-208b-407f-a25b-e3c347616237" x="479.12" y="0">q</tspan></text></g></g></svg>