<svg xmlns="http://www.w3.org/2000/svg" xmlns:xlink="http://www.w3.org/1999/xlink" viewBox="0 0 994.89 796.73"><defs><style>.ba77d344-9d39-4274-8cff-87db9e8d08bf{fill:url(#afd08cb5-663b-43eb-95a2-9d96116267f8);}.fb8bc9f6-24e3-4ee2-b0aa-a511a4d7fb94{fill:url(#a5ad12a0-8deb-4f93-b9bf-b4b79ff12f74);}.af5b6623-76db-4bc0-a6d9-3411cc9fc276{fill:url(#bf992e7c-8adf-41b1-9424-6ca88958a7c9);}.e6ba3843-736b-463d-b79b-623248e9529d{fill:url(#bd9e18c3-5f6d-4e71-8589-1e9132b5519d);}.a69cab51-0b5b-48e5-8f62-6d24665b1789{font-size:186.84px;fill:#00bfff;font-family:GravesendSans-Medium, Gravesend Sans;font-weight:500;letter-spacing:0.13em;}.b474e999-cebe-47d4-91a3-64bb785b24b0,.f618f722-2e2a-4b7f-a2f0-e7f5896bef16{fill:#9fa3ac;}.a52662b7-b9ea-432c-a385-69a99197147b,.b474e999-cebe-47d4-91a3-64bb785b24b0{letter-spacing:0.14em;}.b7176441-f84d-4ad4-a9c1-dc8b96949ad5,.f618f722-2e2a-4b7f-a2f0-e7f5896bef16{letter-spacing:0.14em;}</style><linearGradient id="afd08cb5-663b-43eb-95a2-9d96116267f8" x1="355.44" y1="146.38" x2="467.24" y2="146.38" gradientUnits="userSpaceOnUse"><stop offset="0" stop-color="#fff"/><stop offset="1"/></linearGradient><linearGradient id="a5ad12a0-8deb-4f93-b9bf-b4b79ff12f74" x1="485.23" y1="146.4" x2="597.03" y2="146.4" xlink:href="#afd08cb5-663b-43eb-95a2-9d96116267f8"/><linearGradient id="bf992e7c-8adf-41b1-9424-6ca88958a7c9" x1="171.43" y1="383.69" x2="463.68" y2="383.69" xlink:href="#afd08cb5-663b-43eb-95a2-9d96116267f8"/><linearGradient id="bd9e18c3-5f6d-4e71-8589-1e9132b5519d" x1="485.94" y1="385.21" x2="778.18" y2="385.21" xlink:href="#afd08cb5-663b-43eb-95a2-9d96116267f8"/></defs><g id="fab4f6e5-0fb3-47d8-9788-478fbbd97b11" data-name="Camada 2"><g id="b9f59269-d29a-474b-b843-cee725949025" data-name="Camada 1"><path class="ba77d344-9d39-4274-8cff-87db9e8d08bf" d="M463.85,3l3.39,288.71a1.08,1.08,0,0,1-1.83.79L355.77,186.3a1.09,1.09,0,0,1-.19-1.31L458.25,1.53A3,3,0,0,1,463.85,3Z"/><path class="fb8bc9f6-24e3-4ee2-b0aa-a511a4d7fb94" d="M488.62,3l-3.39,288.71a1.08,1.08,0,0,0,1.83.79L596.7,186.31a1.08,1.08,0,0,0,.19-1.3L494.22,1.55A3,3,0,0,0,488.62,3Z"/><path class="af5b6623-76db-4bc0-a6d9-3411cc9fc276" d="M348.94,209.4l114.21,99.91a1.57,1.57,0,0,1,.53,1.18V518.74a2.18,2.18,0,0,1-3.74,1.52l-79.45-81.45a1.46,1.46,0,0,1-.41-1V390.12a.73.73,0,0,0-1.19-.57L174,558.3a1.56,1.56,0,0,1-2.38-1.9L344.69,210.24A2.73,2.73,0,0,1,348.94,209.4Z"/><path class="e6ba3843-736b-463d-b79b-623248e9529d" d="M600.68,211,486.47,310.93a1.54,1.54,0,0,0-.53,1.18V520.36a2.18,2.18,0,0,0,3.74,1.52l79.45-81.45a1.47,1.47,0,0,0,.41-1V391.73c0-.62.72-1,.58-1.07L775,559.4c1.91,1.58,3.74.12,3-1.38L604.93,211.85A2.74,2.74,0,0,0,600.68,211Z"/><text class="a69cab51-0b5b-48e5-8f62-6d24665b1789" transform="translate(0 759.73)">E<tspan class="b474e999-cebe-47d4-91a3-64bb785b24b0" x="144.99" y="0">S</tspan><tspan class="a52662b7-b9ea-432c-a385-69a99197147b" x="290.15" y="0">C</tspan><tspan class="f618f722-2e2a-4b7f-a2f0-e7f5896bef16" x="446.72" y="0">ALI</tspan><tspan class="b7176441-f84d-4ad4-a9c1-dc8b96949ad5" x="819.82" y="0">Q</tspan></text></g></g></svg>