<svg xmlns="http://www.w3.org/2000/svg" xmlns:xlink="http://www.w3.org/1999/xlink" viewBox="0 0 927.35 312.76"><defs><style>.e1d32fb5-5b73-44bf-9a1d-1e06d34853ba{fill:url(#af0d2c11-42ef-4501-bf6a-1155b4164998);}.b29abef0-a8b0-4777-9d38-b07bdab4d625{fill:url(#b9cb59bb-067c-49cf-bebf-bea6bcea77b7);}.ee9e642a-7024-4964-ae29-052f37b7d62e{fill:url(#aa2ab6dc-ab5a-4d8c-bd68-fb9dd04ee695);}.f259ed4e-9387-4495-904a-636c7ab22912{fill:url(#fed1cb33-5c6c-44d5-8474-f664585e90d1);}.e802047c-a38a-4dc6-bd11-fa83845cbd38{font-size:109.19px;fill:#015c8c;font-family:GravesendSans-Medium, Gravesend Sans;font-weight:500;letter-spacing:0.13em;}.ad952eec-576a-4505-a3d1-73ea5bf70c98,.fb08f07e-5a11-4590-8b8f-8327e7675e71{fill:#9fa3ac;}.fb08f07e-5a11-4590-8b8f-8327e7675e71{letter-spacing:0.14em;}.b9255aed-cab8-447e-9cc7-4650dd4d3769{letter-spacing:0.14em;}.ad952eec-576a-4505-a3d1-73ea5bf70c98{letter-spacing:0.14em;}</style><linearGradient id="af0d2c11-42ef-4501-bf6a-1155b4164998" x1="102.75" y1="81.74" x2="165.19" y2="81.74" gradientUnits="userSpaceOnUse"><stop offset="0" stop-color="#fff"/><stop offset="1"/></linearGradient><linearGradient id="b9cb59bb-067c-49cf-bebf-bea6bcea77b7" x1="175.23" y1="81.75" x2="237.66" y2="81.75" xlink:href="#af0d2c11-42ef-4501-bf6a-1155b4164998"/><linearGradient id="aa2ab6dc-ab5a-4d8c-bd68-fb9dd04ee695" x1="0" y1="214.26" x2="163.2" y2="214.26" xlink:href="#af0d2c11-42ef-4501-bf6a-1155b4164998"/><linearGradient id="fed1cb33-5c6c-44d5-8474-f664585e90d1" x1="175.63" y1="215.11" x2="338.82" y2="215.11" xlink:href="#af0d2c11-42ef-4501-bf6a-1155b4164998"/></defs><g id="b80468c2-57fe-4788-adce-299350c57555" data-name="Camada 2"><g id="f2b81f5d-e090-4a8e-a221-05718c4d46d3" data-name="Camada 1"><path class="e1d32fb5-5b73-44bf-9a1d-1e06d34853ba" d="M163.29,1.65l1.9,161.23a.61.61,0,0,1-1,.44L102.94,104a.59.59,0,0,1-.11-.72L160.16.86A1.67,1.67,0,0,1,163.29,1.65Z"/><path class="b29abef0-a8b0-4777-9d38-b07bdab4d625" d="M177.13,1.66l-1.9,161.23a.6.6,0,0,0,1,.44L237.48,104a.61.61,0,0,0,.11-.73L180.25.87A1.66,1.66,0,0,0,177.13,1.66Z"/><path class="ee9e642a-7024-4964-ae29-052f37b7d62e" d="M99.12,116.93l63.78,55.8a.86.86,0,0,1,.3.66V289.68a1.22,1.22,0,0,1-2.09.85L116.74,245a.83.83,0,0,1-.23-.56V217.85a.4.4,0,0,0-.66-.31L1.42,311.77A.87.87,0,0,1,.1,310.71L96.75,117.4A1.53,1.53,0,0,1,99.12,116.93Z"/><path class="f259ed4e-9387-4495-904a-636c7ab22912" d="M239.7,117.84l-63.77,55.79a.87.87,0,0,0-.3.66V290.58a1.21,1.21,0,0,0,2.08.85l44.37-45.49a.79.79,0,0,0,.23-.56V218.75c0-.34.4-.53.32-.6l114.43,94.23c1.06.88,2.09.07,1.67-.77L242.07,118.3A1.52,1.52,0,0,0,239.7,117.84Z"/><text class="e802047c-a38a-4dc6-bd11-fa83845cbd38" transform="translate(345.92 200.15)">E<tspan class="fb08f07e-5a11-4590-8b8f-8327e7675e71" x="84.73" y="0">S</tspan><tspan class="b9255aed-cab8-447e-9cc7-4650dd4d3769" x="169.57" y="0">C</tspan><tspan class="ad952eec-576a-4505-a3d1-73ea5bf70c98" x="261.07" y="0">ALI</tspan><tspan class="b9255aed-cab8-447e-9cc7-4650dd4d3769" x="479.12" y="0">Q</tspan></text></g></g></svg>